<svg aria-hidden="true" style="position: absolute; width: 0; height: 0; overflow: hidden;" version="1.1" xmlns="http://www.w3.org/2000/svg" xmlns:xlink="http://www.w3.org/1999/xlink">
<defs>
<symbol id="menu-burg" viewBox="0 0 32 32">
<path fill="#f7f7f7" style="fill: var(--color1, #f7f7f7)" d="M3 8c0-0.552 0.448-1 1-1h24c0.552 0 1 0.448 1 1s-0.448 1-1 1h-24c-0.552 0-1-0.448-1-1zM3 16c0-0.552 0.448-1 1-1h24c0.552 0 1 0.448 1 1s-0.448 1-1 1h-24c-0.552 0-1-0.448-1-1zM3 24c0-0.552 0.448-1 1-1h16c0.552 0 1 0.448 1 1s-0.448 1-1 1h-16c-0.552 0-1-0.448-1-1z"></path>
</symbol>
<symbol id="button-left" viewBox="0 0 32 32">
<path d="M24.414 31.414c0.781-0.781 0.781-2.047 0-2.828l-12.586-12.586 12.586-12.586c0.781-0.781 0.781-2.047 0-2.828s-2.047-0.781-2.828 0l-14 14c-0.781 0.781-0.781 2.047 0 2.828l14 14c0.781 0.781 2.047 0.781 2.828 0z"></path>
</symbol>
<symbol id="button-right" viewBox="0 0 32 32">
<path d="M7.586 31.414c-0.781-0.781-0.781-2.047 0-2.828l12.586-12.586-12.586-12.586c-0.781-0.781-0.781-2.047 0-2.828s2.047-0.781 2.828 0l14 14c0.781 0.781 0.781 2.047 0 2.828l-14 14c-0.781 0.781-2.047 0.781-2.828 0z"></path>
</symbol>
<symbol id="facebook" viewBox="0 0 32 32">
<path fill="#f7f7f7" style="fill: var(--color1, #f7f7f7)" d="M14.579 3.912c1.438-1.438 3.388-2.246 5.421-2.246h4c0.552 0 1 0.448 1 1v5.333c0 0.552-0.448 1-1 1h-4c-0.088 0-0.173 0.035-0.236 0.098s-0.098 0.147-0.098 0.236v3h4.333c0.308 0 0.599 0.142 0.788 0.385s0.257 0.559 0.182 0.858l-1.333 5.333c-0.111 0.445-0.511 0.757-0.97 0.757h-3v9.667c0 0.552-0.448 1-1 1h-5.333c-0.552 0-1-0.448-1-1v-9.667h-3c-0.552 0-1-0.448-1-1v-5.333c0-0.552 0.448-1 1-1h3v-3c0-2.033 0.808-3.983 2.245-5.421zM20 3.667c-1.503 0-2.944 0.597-4.007 1.66s-1.66 2.504-1.66 4.007v4c0 0.552-0.448 1-1 1h-3v3.333h3c0.552 0 1 0.448 1 1v9.667h3.333v-9.667c0-0.552 0.448-1 1-1h3.219l0.833-3.333h-4.053c-0.552 0-1-0.448-1-1v-4c0-0.619 0.246-1.212 0.683-1.65s1.031-0.683 1.65-0.683h3v-3.333h-3z"></path>
</symbol>
<symbol id="instagram" viewBox="0 0 32 32">
<path fill="#f7f7f7" style="fill: var(--color1, #f7f7f7)" d="M9.333 0.667c-4.786 0-8.667 3.88-8.667 8.667v13.333c0 4.787 3.88 8.667 8.667 8.667h13.333c4.787 0 8.667-3.88 8.667-8.667v-13.333c0-4.786-3.88-8.667-8.667-8.667h-13.333zM9.333 2.667h13.333c3.682 0 6.667 2.985 6.667 6.667v13.333c0 3.682-2.985 6.667-6.667 6.667h-13.333c-3.682 0-6.667-2.985-6.667-6.667v-13.333c0-3.682 2.985-6.667 6.667-6.667z"></path>
<path fill="#f7f7f7" style="fill: var(--color1, #f7f7f7)" d="M23.312 14.867c0.226 1.526-0.034 3.084-0.745 4.453s-1.835 2.479-3.212 3.173-2.939 0.935-4.462 0.69c-1.523-0.245-2.93-0.964-4.020-2.055s-1.81-2.498-2.055-4.020c-0.245-1.523-0.004-3.084 0.69-4.462s1.804-2.502 3.173-3.212c1.369-0.71 2.927-0.971 4.453-0.745 1.556 0.231 2.997 0.956 4.11 2.069s1.838 2.553 2.069 4.11zM20.792 18.399c0.517-0.996 0.706-2.129 0.542-3.239-0.168-1.132-0.695-2.18-1.504-2.989s-1.857-1.337-2.989-1.504c-1.11-0.165-2.243 0.025-3.239 0.542s-1.803 1.334-2.308 2.336c-0.504 1.002-0.68 2.138-0.502 3.245s0.701 2.131 1.494 2.924 1.816 1.316 2.924 1.494c1.107 0.178 2.243 0.003 3.245-0.502s1.82-1.312 2.336-2.307z"></path>
<path fill="#f7f7f7" style="fill: var(--color1, #f7f7f7)" d="M22.333 8.667c0-0.552 0.448-1 1-1h0.016c0.552 0 1 0.448 1 1s-0.448 1-1 1h-0.016c-0.552 0-1-0.448-1-1z"></path>
</symbol>
<symbol id="twitter" viewBox="0 0 32 32">
<path fill="#f7f7f7" style="fill: var(--color1, #f7f7f7)" d="M19.486 3.445c1.335-0.509 2.793-0.597 4.179-0.25 1.166 0.292 2.233 0.879 3.101 1.7 1.181-0.414 2.3-0.99 3.324-1.713 0.341-0.24 0.795-0.244 1.139-0.009s0.508 0.658 0.409 1.063c-0.455 1.869-1.38 3.589-2.683 4.997 0.029 0.253 0.043 0.508 0.044 0.763v0.003c0 8.017-3.854 13.867-9.363 16.799-5.486 2.92-12.512 2.895-18.789-0.592-0.405-0.225-0.602-0.698-0.477-1.144s0.54-0.748 1.003-0.729c2.512 0.1 4.997-0.454 7.215-1.595-2.243-1.275-3.812-2.824-4.871-4.496-1.3-2.053-1.794-4.232-1.883-6.198-0.089-1.961 0.223-3.732 0.552-5.004 0.165-0.639 0.336-1.158 0.468-1.522 0.066-0.182 0.122-0.325 0.162-0.425 0.020-0.050 0.037-0.089 0.049-0.117l0.014-0.033 0.004-0.010 0.002-0.003 0.001-0.001c0-0.001 0-0.001 0.914 0.405l-0.914-0.406c0.146-0.329 0.458-0.554 0.817-0.589s0.708 0.126 0.915 0.421c1.252 1.783 2.926 3.229 4.873 4.209 1.656 0.833 3.465 1.307 5.309 1.396v-0.317c-0.018-1.426 0.402-2.823 1.203-4.003 0.802-1.182 1.948-2.089 3.283-2.598zM4.364 7.386c-0.014 0.051-0.027 0.103-0.041 0.156-0.296 1.144-0.568 2.707-0.49 4.413 0.077 1.701 0.501 3.522 1.575 5.219 1.070 1.69 2.825 3.317 5.665 4.58 0.332 0.147 0.558 0.463 0.59 0.825s-0.134 0.712-0.434 0.916c-1.794 1.218-3.799 2.063-5.897 2.502 4.692 1.529 9.494 1.099 13.365-0.962 4.823-2.567 8.303-7.717 8.303-15.033-0.001-0.309-0.031-0.617-0.089-0.92-0.063-0.328 0.042-0.665 0.28-0.9 0.576-0.568 1.072-1.205 1.479-1.895-0.617 0.278-1.252 0.516-1.902 0.711-0.377 0.113-0.785-0.005-1.043-0.301-0.669-0.769-1.557-1.314-2.545-1.561s-2.029-0.185-2.981 0.178-1.769 1.010-2.341 1.853c-0.572 0.843-0.872 1.841-0.858 2.86l0 0.013v1.333c0 0.542-0.432 0.986-0.974 1-2.508 0.065-4.993-0.491-7.234-1.619-1.675-0.843-3.175-1.986-4.428-3.368z"></path>
</symbol>
<symbol id="x-close" viewBox="0 0 32 32">
<path fill="none" stroke="#f7f7f7" style="stroke: var(--color1, #f7f7f7)" stroke-linejoin="round" stroke-linecap="round" stroke-miterlimit="4" stroke-width="2" d="M24 8l-16 16M8 8l16 16"></path>
</symbol>
<symbol id="arrow-up2" viewBox="0 0 32 32">
<path d="M27.414 12.586l-10-10c-0.781-0.781-2.047-0.781-2.828 0l-10 10c-0.781 0.781-0.781 2.047 0 2.828s2.047 0.781 2.828 0l6.586-6.586v19.172c0 1.105 0.895 2 2 2s2-0.895 2-2v-19.172l6.586 6.586c0.39 0.39 0.902 0.586 1.414 0.586s1.024-0.195 1.414-0.586c0.781-0.781 0.781-2.047 0-2.828z"></path>
</symbol>
<symbol id="home" viewBox="0 0 32 32">
<path d="M32 18.451l-16-12.42-16 12.42v-5.064l16-12.42 16 12.42zM28 18v12h-8v-8h-8v8h-8v-12l12-9z"></path>
</symbol>
</defs>
</svg>
