<svg aria-hidden="true" style="position: absolute; width: 0; height: 0; overflow: hidden;" version="1.1" xmlns="http://www.w3.org/2000/svg" xmlns:xlink="http://www.w3.org/1999/xlink">
<defs>
<symbol id="button-left" viewBox="0 0 32 32">
<path d="M24.414 31.414c0.781-0.781 0.781-2.047 0-2.828l-12.586-12.586 12.586-12.586c0.781-0.781 0.781-2.047 0-2.828s-2.047-0.781-2.828 0l-14 14c-0.781 0.781-0.781 2.047 0 2.828l14 14c0.781 0.781 2.047 0.781 2.828 0z"></path>
</symbol>
<symbol id="button-right" viewBox="0 0 32 32">
<path d="M7.586 31.414c-0.781-0.781-0.781-2.047 0-2.828l12.586-12.586-12.586-12.586c-0.781-0.781-0.781-2.047 0-2.828s2.047-0.781 2.828 0l14 14c0.781 0.781 0.781 2.047 0 2.828l-14 14c-0.781 0.781-2.047 0.781-2.828 0z"></path>
</symbol>
<symbol id="btn-select" viewBox="0 0 32 32">
<path  stroke-linejoin="round" stroke-linecap="round" stroke-miterlimit="4" stroke-width="2.88" d="M8 12l8 8 8-8"></path>
</symbol>
<symbol id="close-x" viewBox="0 0 32 32">
<path  stroke-linejoin="round" stroke-linecap="round" stroke-miterlimit="4" stroke-width="2" d="M24 8l-16 16M8 8l16 16"></path>
</symbol>
<symbol id="facebook" viewBox="0 0 32 32">
<path  stroke-linejoin="round" stroke-linecap="round" stroke-miterlimit="4" stroke-width="2" d="M24 2.667h-4c-1.768 0-3.464 0.702-4.714 1.953s-1.953 2.946-1.953 4.714v4h-4v5.333h4v10.667h5.333v-10.667h4l1.333-5.333h-5.333v-4c0-0.354 0.141-0.693 0.391-0.943s0.589-0.391 0.943-0.391h4v-5.333z"></path>
</symbol>
<symbol id="instagram" viewBox="0 0 32 32">
<path  stroke-linejoin="round" stroke-linecap="round" stroke-miterlimit="4" stroke-width="2" d="M22.667 2.667h-13.333c-3.682 0-6.667 2.985-6.667 6.667v13.333c0 3.682 2.985 6.667 6.667 6.667h13.333c3.682 0 6.667-2.985 6.667-6.667v-13.333c0-3.682-2.985-6.667-6.667-6.667z"></path>
<path  stroke-linejoin="round" stroke-linecap="round" stroke-miterlimit="4" stroke-width="2" d="M21.334 15.16c0.165 1.11-0.025 2.243-0.542 3.239s-1.334 1.803-2.336 2.307c-1.002 0.504-2.138 0.68-3.245 0.502s-2.131-0.701-2.924-1.494-1.316-1.816-1.494-2.924c-0.178-1.108-0.003-2.243 0.502-3.245s1.312-1.819 2.308-2.336 2.129-0.706 3.239-0.542c1.132 0.168 2.18 0.695 2.989 1.504s1.337 1.857 1.504 2.989z"></path>
<path  stroke-linejoin="round" stroke-linecap="round" stroke-miterlimit="4" stroke-width="2" d="M23.333 8.667h0.016"></path>
</symbol>
<symbol id="btn-burger-menu" viewBox="0 0 32 32">
<path  stroke-linejoin="round" stroke-linecap="round" stroke-miterlimit="4" stroke-width="2" d="M4 16h24M4 8h24M4 24h16"></path>
</symbol>
<symbol id="twitter" viewBox="0 0 32 32">
<path  stroke-linejoin="round" stroke-linecap="round" stroke-miterlimit="4" stroke-width="2" d="M30.667 4c-1.277 0.901-2.691 1.589-4.187 2.040-0.803-0.923-1.87-1.578-3.057-1.875s-2.437-0.222-3.58 0.214c-1.143 0.436-2.125 1.213-2.812 2.226s-1.047 2.212-1.031 3.435v1.333c-2.343 0.061-4.665-0.459-6.759-1.513s-3.894-2.609-5.241-4.527c0 0-5.333 12 6.667 17.333-2.746 1.864-6.017 2.799-9.333 2.667 12 6.667 26.667 0 26.667-15.333-0.001-0.371-0.037-0.742-0.107-1.107 1.361-1.342 2.321-3.036 2.773-4.893z"></path>
</symbol>

<symbol id="button-top" viewBox="0 0 32 32">
<path d="M32 18.451l-16-12.42-16 12.42v-5.064l16-12.42 16 12.42zM28 18v12h-8v-8h-8v8h-8v-12l12-9z"></path>
</symbol>




<symbol id="button-top2" viewBox="0 0 32 32">
<path d="M29.333 16c0 7.364-5.97 13.333-13.333 13.333v0c-7.364 0-13.333-5.97-13.333-13.333v0c0-7.364 5.97-13.333 13.333-13.333v0c7.364 0 13.333 5.97 13.333 13.333v0zM9.867 20.533l6.133-6.133 6.133 6.133 1.867-1.867-8-8-8 8 1.867 1.867z"></path>
</symbol>

<symbol id="button-top-1" viewBox="0 0 32 32">
<path d="M29.855 7.969c-1.431-2.451-3.372-4.392-5.823-5.823s-5.128-2.146-8.031-2.146c-2.903 0-5.58 0.715-8.031 2.146s-4.392 3.371-5.823 5.823c-1.431 2.452-2.146 5.129-2.146 8.031s0.715 5.58 2.146 8.031c1.431 2.451 3.372 4.392 5.823 5.823s5.129 2.146 8.031 2.146 5.58-0.715 8.032-2.146c2.451-1.43 4.392-3.372 5.823-5.823s2.146-5.129 2.146-8.031c0-2.903-0.715-5.58-2.145-8.031zM26.396 18.937l-2.125 2.126c-0.264 0.264-0.577 0.396-0.937 0.396s-0.674-0.132-0.937-0.396l-6.396-6.396-6.396 6.396c-0.264 0.264-0.576 0.396-0.937 0.396s-0.674-0.132-0.938-0.396l-2.125-2.126c-0.264-0.263-0.396-0.576-0.396-0.937s0.132-0.673 0.396-0.938l9.458-9.458c0.264-0.264 0.576-0.396 0.937-0.396s0.674 0.132 0.937 0.396l9.459 9.458c0.264 0.264 0.396 0.577 0.396 0.938s-0.132 0.674-0.396 0.937z"></path>
</symbol>
</defs>
</svg>
