<?xml version="1.0" standalone="no"?>
<!DOCTYPE svg PUBLIC "-//W3C//DTD SVG 20010904//EN"
 "http://www.w3.org/TR/2001/REC-SVG-20010904/DTD/svg10.dtd">
<svg version="1.0" xmlns="http://www.w3.org/2000/svg"
 width="660.000000pt" height="660.000000pt" viewBox="0 0 660.000000 660.000000"
 preserveAspectRatio="xMidYMid meet">
<metadata>
Created by potrace 1.14, written by Peter Selinger 2001-2017
</metadata>
<g transform="translate(0.000000,660.000000) scale(0.100000,-0.100000)"
fill="#000000" stroke="none">
<path d="M13 3300 l0 -2520 302 0 303 0 -2 1970 c0 1084 1 1970 4 1970 3 0 26
-42 53 -92 49 -97 153 -296 277 -533 40 -77 100 -192 133 -255 33 -63 85 -164
117 -225 32 -60 92 -175 133 -255 113 -219 228 -439 373 -715 37 -71 93 -178
123 -237 31 -59 87 -167 125 -240 38 -73 88 -170 111 -215 23 -45 47 -89 54
-97 7 -8 14 -21 15 -28 1 -7 13 -33 26 -58 14 -25 31 -58 39 -75 8 -16 18 -32
21 -35 3 -3 22 -40 43 -82 l38 -77 213 -3 c235 -3 246 -3 246 17 0 7 3 15 8
17 4 2 35 57 69 123 34 66 82 158 107 205 53 101 112 216 186 360 29 58 56
107 59 110 3 3 44 82 91 175 47 94 88 172 92 173 5 2 8 12 8 22 0 10 3 20 7
22 5 1 21 30 37 63 16 33 32 62 35 65 3 3 27 48 53 100 26 52 87 172 136 265
198 382 278 535 328 630 29 55 71 136 93 180 22 44 71 139 109 210 37 72 95
182 128 245 32 63 63 118 67 121 5 3 8 8 6 10 -1 2 12 31 29 64 l31 60 1 -55
c0 -30 0 -273 0 -540 -1 -267 -1 -492 -1 -500 0 -12 0 -427 0 -480 0 -37 0
-787 0 -800 0 -14 0 -453 0 -475 0 -5 1 -256 1 -557 l2 -548 302 0 302 0 0
2520 0 2520 -357 0 -357 0 -78 -152 c-125 -249 -225 -442 -234 -453 -4 -5 -11
-21 -15 -35 -4 -14 -11 -27 -14 -30 -4 -3 -49 -89 -101 -192 -52 -103 -124
-245 -160 -315 -35 -71 -68 -129 -72 -131 -4 -2 -8 -8 -8 -14 0 -11 -101 -219
-111 -228 -3 -3 -47 -88 -98 -190 -81 -160 -162 -317 -252 -490 -13 -25 -23
-47 -24 -50 0 -3 -6 -14 -12 -25 -6 -11 -34 -65 -63 -120 -29 -55 -57 -106
-62 -112 -6 -7 -7 -13 -3 -13 3 0 -2 -15 -13 -32 -11 -18 -83 -157 -160 -308
-284 -557 -317 -619 -323 -612 -6 6 -190 362 -306 592 -26 52 -50 97 -53 100
-3 3 -30 55 -61 115 -55 109 -203 396 -324 630 -93 180 -241 466 -304 590 -31
61 -59 112 -63 113 -5 2 -8 9 -8 16 0 7 -17 44 -38 82 -20 38 -64 121 -96 184
-32 63 -76 149 -98 190 -21 41 -99 192 -173 335 -74 143 -168 325 -209 405
l-74 145 -355 3 -354 2 0 -2520z"/>
<path d="M5965 3303 l0 -2518 303 -3 302 -2 0 2520 0 2520 -303 0 -302 0 0
-2517z"/>
</g>
</svg>
